# Blender 3.3.1
# www.blender.org
mtllib Pylon.mtl
o Pylon
v 0.000000 0.007271 -0.569232
v 0.000000 2.124602 -0.159093
v 0.111052 0.007271 -0.558295
v 0.031037 2.124602 -0.156036
v 0.217836 0.007271 -0.525902
v 0.060882 2.124602 -0.146982
v 0.316248 0.007271 -0.473299
v 0.088387 2.124602 -0.132281
v 0.402508 0.007271 -0.402508
v 0.112495 2.124602 -0.112496
v 0.473299 0.007271 -0.316248
v 0.132281 2.124602 -0.088387
v 0.525902 0.007271 -0.217836
v 0.146982 2.124602 -0.060882
v 0.558295 0.007271 -0.111052
v 0.156036 2.124602 -0.031038
v 0.569232 0.007271 -0.000000
v 0.159092 2.124602 -0.000000
v 0.558295 0.007271 0.111052
v 0.156036 2.124602 0.031037
v 0.525902 0.007271 0.217836
v 0.146982 2.124602 0.060882
v 0.473299 0.007271 0.316248
v 0.132281 2.124602 0.088387
v 0.402508 0.007271 0.402508
v 0.112495 2.124602 0.112495
v 0.316248 0.007271 0.473299
v 0.088387 2.124602 0.132280
v 0.217836 0.007271 0.525902
v 0.060882 2.124602 0.146982
v 0.111052 0.007271 0.558294
v 0.031037 2.124602 0.156035
v -0.000000 0.007271 0.569232
v 0.000000 2.124602 0.159092
v -0.111052 0.007271 0.558294
v -0.031037 2.124602 0.156035
v -0.217836 0.007271 0.525902
v -0.060882 2.124602 0.146982
v -0.316249 0.007271 0.473299
v -0.088387 2.124602 0.132280
v -0.402508 0.007271 0.402508
v -0.112495 2.124602 0.112495
v -0.473299 0.007271 0.316248
v -0.132281 2.124602 0.088387
v -0.525902 0.007271 0.217835
v -0.146982 2.124602 0.060882
v -0.558295 0.007271 0.111051
v -0.156035 2.124602 0.031037
v -0.569232 0.007271 -0.000001
v -0.159092 2.124602 -0.000000
v -0.558294 0.007271 -0.111052
v -0.156035 2.124602 -0.031038
v -0.525902 0.007271 -0.217836
v -0.146982 2.124602 -0.060882
v -0.473299 0.007271 -0.316249
v -0.132280 2.124602 -0.088387
v -0.402507 0.007271 -0.402508
v -0.112495 2.124602 -0.112496
v -0.316248 0.007271 -0.473300
v -0.088387 2.124602 -0.132281
v -0.217835 0.007271 -0.525902
v -0.060882 2.124602 -0.146982
v -0.111051 0.007271 -0.558295
v -0.031037 2.124602 -0.156036
vn -0.0000 -0.4281 -0.9037
vn -0.0000 0.6424 -0.7663
vn 0.1495 0.6424 -0.7516
vn 0.1763 -0.4281 -0.8864
vn 0.2933 0.6424 -0.7080
vn 0.3458 -0.4281 -0.8349
vn 0.4258 0.6424 -0.6372
vn 0.5021 -0.4281 -0.7514
vn 0.5419 0.6424 -0.5419
vn 0.6390 -0.4281 -0.6390
vn 0.6372 0.6424 -0.4258
vn 0.7514 -0.4281 -0.5021
vn 0.7080 0.6424 -0.2933
vn 0.8349 -0.4281 -0.3458
vn 0.7516 0.6424 -0.1495
vn 0.8864 -0.4281 -0.1763
vn 0.7663 0.6424 -0.0000
vn 0.9037 -0.4281 -0.0000
vn 0.7516 0.6424 0.1495
vn 0.8864 -0.4281 0.1763
vn 0.7080 0.6424 0.2933
vn 0.8349 -0.4281 0.3458
vn 0.6372 0.6424 0.4258
vn 0.7514 -0.4281 0.5021
vn 0.5419 0.6424 0.5419
vn 0.6390 -0.4281 0.6390
vn 0.4258 0.6424 0.6372
vn 0.5021 -0.4281 0.7514
vn 0.2933 0.6424 0.7080
vn 0.3458 -0.4281 0.8349
vn 0.1495 0.6424 0.7516
vn 0.1763 -0.4281 0.8864
vn -0.0000 0.6424 0.7663
vn -0.0000 -0.4281 0.9037
vn -0.1495 0.6424 0.7516
vn -0.1763 -0.4281 0.8864
vn -0.2933 0.6424 0.7080
vn -0.3458 -0.4281 0.8349
vn -0.4258 0.6424 0.6372
vn -0.5021 -0.4281 0.7514
vn -0.5419 0.6424 0.5419
vn -0.6390 -0.4281 0.6390
vn -0.6372 0.6424 0.4258
vn -0.7514 -0.4281 0.5021
vn -0.7080 0.6424 0.2933
vn -0.8349 -0.4281 0.3458
vn -0.7516 0.6424 0.1495
vn -0.8864 -0.4281 0.1763
vn -0.7663 0.6424 -0.0000
vn -0.9037 -0.4281 -0.0000
vn -0.7516 0.6424 -0.1495
vn -0.8864 -0.4281 -0.1763
vn -0.7080 0.6424 -0.2933
vn -0.8349 -0.4281 -0.3458
vn -0.6372 0.6424 -0.4258
vn -0.7514 -0.4281 -0.5021
vn -0.5419 0.6424 -0.5419
vn -0.6390 -0.4281 -0.6390
vn -0.4258 0.6424 -0.6372
vn -0.5021 -0.4281 -0.7514
vn -0.2933 0.6424 -0.7080
vn -0.3458 -0.4281 -0.8349
vn -0.1495 0.6424 -0.7516
vn -0.1763 -0.4281 -0.8864
vt 0.958461 0.520769
vt 0.041539 0.520769
vt 0.750000 0.457104
vt 0.958461 0.979231
vt 0.250000 0.448580
vt 0.041539 0.979231
vt 0.929807 0.520769
vt 0.790404 0.453124
vt 0.929807 0.979231
vt 0.288741 0.444764
vt 0.901153 0.520769
vt 0.829255 0.441339
vt 0.901153 0.979231
vt 0.325993 0.433464
vt 0.872500 0.520769
vt 0.865061 0.422200
vt 0.872500 0.979231
vt 0.360325 0.415113
vt 0.843846 0.520769
vt 0.896444 0.396444
vt 0.843846 0.979231
vt 0.390417 0.390417
vt 0.815192 0.520769
vt 0.922200 0.365061
vt 0.815192 0.979231
vt 0.415113 0.360325
vt 0.786538 0.520769
vt 0.941339 0.329255
vt 0.786538 0.979231
vt 0.433464 0.325993
vt 0.757884 0.520769
vt 0.953124 0.290404
vt 0.757884 0.979231
vt 0.444764 0.288741
vt 0.729231 0.520769
vt 0.957104 0.250000
vt 0.729231 0.979231
vt 0.448580 0.250000
vt 0.700577 0.520769
vt 0.953124 0.209596
vt 0.700577 0.979231
vt 0.444764 0.211259
vt 0.671923 0.520769
vt 0.941339 0.170745
vt 0.671923 0.979231
vt 0.433464 0.174007
vt 0.643269 0.520769
vt 0.922200 0.134939
vt 0.643269 0.979231
vt 0.415113 0.139675
vt 0.614615 0.520769
vt 0.896444 0.103556
vt 0.614615 0.979231
vt 0.390417 0.109583
vt 0.585961 0.520769
vt 0.865061 0.077800
vt 0.585961 0.979231
vt 0.360325 0.084887
vt 0.557308 0.520769
vt 0.829255 0.058661
vt 0.557308 0.979231
vt 0.325993 0.066536
vt 0.528654 0.520769
vt 0.790404 0.046876
vt 0.528654 0.979231
vt 0.288741 0.055236
vt 0.500000 0.520769
vt 0.750000 0.042896
vt 0.500000 0.979231
vt 0.250000 0.051420
vt 0.471346 0.520769
vt 0.709596 0.046876
vt 0.471346 0.979231
vt 0.211259 0.055236
vt 0.442692 0.520769
vt 0.670745 0.058661
vt 0.442692 0.979231
vt 0.174007 0.066536
vt 0.414039 0.520769
vt 0.634939 0.077800
vt 0.414039 0.979231
vt 0.139675 0.084887
vt 0.385385 0.520769
vt 0.603556 0.103556
vt 0.385385 0.979231
vt 0.109583 0.109583
vt 0.356731 0.520769
vt 0.577800 0.134940
vt 0.356731 0.979231
vt 0.084887 0.139675
vt 0.328077 0.520769
vt 0.558661 0.170745
vt 0.328077 0.979231
vt 0.066536 0.174007
vt 0.299423 0.520769
vt 0.546876 0.209596
vt 0.299423 0.979231
vt 0.055236 0.211259
vt 0.270769 0.520769
vt 0.542896 0.250000
vt 0.270769 0.979231
vt 0.051420 0.250000
vt 0.242116 0.520769
vt 0.546876 0.290404
vt 0.242116 0.979231
vt 0.055236 0.288741
vt 0.213462 0.520769
vt 0.558661 0.329255
vt 0.213462 0.979231
vt 0.066536 0.325993
vt 0.184808 0.520769
vt 0.577800 0.365061
vt 0.184808 0.979231
vt 0.084887 0.360325
vt 0.156154 0.520769
vt 0.603556 0.396444
vt 0.156154 0.979231
vt 0.109583 0.390417
vt 0.127500 0.520769
vt 0.634940 0.422200
vt 0.127500 0.979231
vt 0.139675 0.415113
vt 0.098847 0.520769
vt 0.670745 0.441339
vt 0.174007 0.433464
vt 0.098847 0.979231
vt 0.070193 0.520769
vt 0.709596 0.453124
vt 0.211259 0.444764
vt 0.070193 0.979231
s 1
usemtl Pylon
f 1/1/1 2/4/2 4/9/3 3/7/4
f 3/7/4 4/9/3 6/13/5 5/11/6
f 5/11/6 6/13/5 8/17/7 7/15/8
f 7/15/8 8/17/7 10/21/9 9/19/10
f 9/19/10 10/21/9 12/25/11 11/23/12
f 11/23/12 12/25/11 14/29/13 13/27/14
f 13/27/14 14/29/13 16/33/15 15/31/16
f 15/31/16 16/33/15 18/37/17 17/35/18
f 17/35/18 18/37/17 20/41/19 19/39/20
f 19/39/20 20/41/19 22/45/21 21/43/22
f 21/43/22 22/45/21 24/49/23 23/47/24
f 23/47/24 24/49/23 26/53/25 25/51/26
f 25/51/26 26/53/25 28/57/27 27/55/28
f 27/55/28 28/57/27 30/61/29 29/59/30
f 29/59/30 30/61/29 32/65/31 31/63/32
f 31/63/32 32/65/31 34/69/33 33/67/34
f 33/67/34 34/69/33 36/73/35 35/71/36
f 35/71/36 36/73/35 38/77/37 37/75/38
f 37/75/38 38/77/37 40/81/39 39/79/40
f 39/79/40 40/81/39 42/85/41 41/83/42
f 41/83/42 42/85/41 44/89/43 43/87/44
f 43/87/44 44/89/43 46/93/45 45/91/46
f 45/91/46 46/93/45 48/97/47 47/95/48
f 47/95/48 48/97/47 50/101/49 49/99/50
f 49/99/50 50/101/49 52/105/51 51/103/52
f 51/103/52 52/105/51 54/109/53 53/107/54
f 53/107/54 54/109/53 56/113/55 55/111/56
f 55/111/56 56/113/55 58/117/57 57/115/58
f 57/115/58 58/117/57 60/121/59 59/119/60
f 59/119/60 60/121/59 62/126/61 61/123/62
f 4/10/3 2/5/2 64/129/63 62/125/61 60/122/59 58/118/57 56/114/55 54/110/53 52/106/51 50/102/49 48/98/47 46/94/45 44/90/43 42/86/41 40/82/39 38/78/37 36/74/35 34/70/33 32/66/31 30/62/29 28/58/27 26/54/25 24/50/23 22/46/21 20/42/19 18/38/17 16/34/15 14/30/13 12/26/11 10/22/9 8/18/7 6/14/5
f 61/123/62 62/126/61 64/130/63 63/127/64
f 63/127/64 64/130/63 2/6/2 1/2/1
f 1/3/1 3/8/4 5/12/6 7/16/8 9/20/10 11/24/12 13/28/14 15/32/16 17/36/18 19/40/20 21/44/22 23/48/24 25/52/26 27/56/28 29/60/30 31/64/32 33/68/34 35/72/36 37/76/38 39/80/40 41/84/42 43/88/44 45/92/46 47/96/48 49/100/50 51/104/52 53/108/54 55/112/56 57/116/58 59/120/60 61/124/62 63/128/64
o Base
v -0.802460 0.000000 0.802460
v 0.802460 0.000000 0.802460
v -0.802460 0.000000 -0.802460
v 0.802460 0.000000 -0.802460
v -0.802460 0.068492 -0.802460
v -0.802460 0.068492 0.802460
v 0.802460 0.068492 0.802460
v 0.802460 0.068492 -0.802460
vn -0.0000 -1.0000 -0.0000
vn -0.0000 1.0000 -0.0000
vn 1.0000 -0.0000 -0.0000
vn -1.0000 -0.0000 -0.0000
vn -0.0000 -0.0000 -1.0000
vn -0.0000 -0.0000 1.0000
vt 0.000000 0.000000
vt 1.000000 0.000000
vt 0.000000 1.000000
vt 1.000000 1.000000
vt 0.000000 1.000000
vt 0.000000 0.000000
vt 1.000000 0.000000
vt 1.000000 1.000000
s 0
usemtl Base
f 65/131/65 67/133/65 68/134/65 66/132/65
f 70/136/66 71/137/66 72/138/66 69/135/66
f 66/132/67 68/134/67 72/138/67 71/137/67
f 67/133/68 65/131/68 70/136/68 69/135/68
f 68/134/69 67/133/69 69/135/69 72/138/69
f 65/131/70 66/132/70 71/137/70 70/136/70
